<svg width="48" height="48" viewBox="0 0 48 48" fill="none" xmlns="http://www.w3.org/2000/svg">
<path d="M23.2435 44.1247C23.6423 44.5862 24.3577 44.5862 24.7565 44.1247L45.2602 20.4039C45.8202 19.7561 45.36 18.75 44.5037 18.75H3.49631C2.64 18.75 2.17979 19.7561 2.73976 20.4039L23.2435 44.1247Z" fill="#ED3501"/>
<path d="M47 14.5C47 20.8513 41.6274 26 35 26C28.3726 26 23 20.8513 23 14.5C23 8.14873 28.3726 3 35 3C41.6274 3 47 8.14873 47 14.5Z" fill="#ED3501"/>
<path d="M25 14.5C25 20.8513 19.6274 26 13 26C6.37258 26 1 20.8513 1 14.5C1 8.14873 6.37258 3 13 3C19.6274 3 25 8.14873 25 14.5Z" fill="#ED3501"/>
</svg>
